<svg xmlns="http://www.w3.org/2000/svg" xmlns:xlink="http://www.w3.org/1999/xlink" width="20" height="20" viewBox="0 0 20 20"><defs><linearGradient id="a" x1="50%" x2="50%" y1="0%" y2="100%"><stop offset="0%" stop-color="#FFF"/><stop offset="100%"/></linearGradient><path id="b" d="M7.813 5.188c.64-.13 3.3-.65 4.74-.65.107 0 .207.003.3.008 1.503.1 2.551.292 2.348 1.654-.204 1.362-1.388 2.301-3.032 3.298 0 0 2.124-.214 2.197.923.072 1.137-.559 2.275-3.094 3.501a10.6 10.6 0 0 1-5.218 1.017.25.25 0 0 1-.245-.298c.24-1.105.918-4.074 1.299-6.083.246-1.387.475-2.76.543-3.198a.203.203 0 0 1 .162-.172zm1.841 5.77a8.177 8.177 0 0 0-.334 1.42s1.738-.34 2.26-.82c.521-.48.448-.72-.037-.772-.633.01-1.265.067-1.889.173zm.47-1.857a7.699 7.699 0 0 0 1.57-1.049c.428-.464.642-.84.12-.892a3.64 3.64 0 0 0-1.168.141c-.094.277-.522 1.8-.522 1.8z"/></defs><g fill="none" fill-rule="evenodd"><path fill="#F5F5F5" d="M-970-86H470v274H-970z"/><path d="M0-27h110v128H0z"/><path d="M0 0h20v20H0z"/><path fill="#848484" d="M15.258 7.828c.521-.835.86-2.134.203-2.99-.657-.855-1.878-.85-2.786-.834-.98.04-1.958.14-2.927.302a56.23 56.23 0 0 0-1.513.24c-.47.079-.955.115-1.2.553a.49.49 0 0 0-.083.345c-.319 1.868-.726 3.735-1.117 5.588-.193.887-.391 1.79-.6 2.681-.068.313-.146.621-.203.934a.96.96 0 0 0 .396 1.044c.222.12.473.175.725.156.81.01 1.618-.054 2.416-.193a11.911 11.911 0 0 0 3.282-1.127c1.435-.74 3.078-1.899 3.193-3.652a1.804 1.804 0 0 0-.209-1.043 1.302 1.302 0 0 0-.913-.61c.519-.39.97-.86 1.336-1.394"/><use fill="url(#a)" xlink:href="#b"/><use fill="#B4B4B4" xlink:href="#b"/></g></svg>