<svg width="15" height="20" viewBox="0 0 15 20" xmlns="http://www.w3.org/2000/svg"><title>9D3A7E64-191E-4BED-BA73-594101C4FA29</title><g fill="none" fill-rule="evenodd"><path d="M0 0h15v20H0z"/><path d="M7.676 15.7a3.683 3.683 0 0 0 3.678-3.686c0-1.792-1.606-3.622-3.525-3.623-.786-.001-1.375.071-2.19.588V4.936L4 4 4 12.014A3.682 3.682 0 0 0 7.676 15.7zm2.081-3.721c0-1.148-.92-2.079-2.053-2.079-1.135 0-2.054.93-2.054 2.079 0 1.148.92 2.079 2.054 2.079s2.053-.931 2.053-2.08z" stroke="#B4B4B4" fill="#B4B4B4"/></g></svg>