<svg xmlns="http://www.w3.org/2000/svg" width="20" height="20" viewBox="0 0 20 20"><g fill="none" fill-rule="evenodd"><path fill="#F5F5F5" d="M-970-113H470v274H-970z"/><path d="M0-54h110V74H0z"/><path d="M0 0h20v20H0z"/><g fill="#B4B4B4"><path d="M12.546 14.525v1.22a.025.025 0 0 1 0 .025H11.31v-2.49h1.25v1.115c-.02.055-.015.105-.015.13m2.511-6.265v1.17c0 .085 0 .09-.085.09h-1.055a.346.346 0 0 0-.105-.02V8.235h1.265l-.02.025zm0 3.74v1.215a.03.03 0 0 1-.03.03H13.81v-1.25l1.245.005zm-8.8-7.5h1.26v1.25H6.251v-.075c.003-.377.005-.769.005-1.175"/><path d="M13.81 13.275v1.14c0 .125 0 .11-.11.11h-1.15v-1.23h1.26v-.02zm-3.784-8.75h1.285V5.77h-1.28v-.05c-.004-.4-.005-.799-.005-1.195m-3.77 1.25h1.27V7.02H6.311a.03.03 0 0 1-.042.009.03.03 0 0 1-.013-.03V5.776zm8.8 2.485h-1.245V7.025h1.2c.05 0 .055 0 .055.06V8.17a.408.408 0 0 0-.01.09M13.81 9.5v1.135a.263.263 0 0 0 0 .115h-1.274V9.505h1.275V9.5zm0 1.275h1.226c.03 0 .035 0 .04.045.005.045 0 0 0 .03v1.18H13.81v-1.255zm-2.524 3.75v1.24H10.06a.03.03 0 0 1-.03-.03v-1.22h1.26l-.005.01zM13.81 7h-1.25V5.755h1.17c.086 0 .086 0 .086.085v1.045c-.005.05-.005.09-.005.115M6.256 4.5v1.25h-1.18c-.075 0-.075 0-.075-.075v-1.1a.278.278 0 0 1 0-.05.025.025 0 0 1 .025 0h1.23V4.5zm1.26 1.275v-1.25H8.77v1.24H7.516z"/><path d="M8.766 5.77V4.53h1.255v1.245H8.766zM7.52 12v-1.255h1.246v1.24H7.52zm0-2.5V8.245h1.25V9.5z"/><path d="M7.52 12h1.25v1.245H7.61c-.094 0-.1 0-.1-.095v-1.08c.006.005.006-.02.01-.07m0-2.5h1.25v1.245H7.52V9.57c-.004.005 0-.02 0-.07m2.506 5.025H8.81c-.045 0-.05 0-.055-.05-.005-.05 0-.05 0-.08v-1.12h1.26v1.255l.01-.005zm1.26-8.76v-.07c.016-.39.025-.788.025-1.195h1.17c.09 0 .085 0 .085.085v1.16h-1.255l-.025.02zM8.77 8.275H7.52v-1.24h1.26v1.25z"/><path d="M10.03 13.27h1.28v1.25h-1.29v-1.14c.006-.035.006-.07.01-.11m3.78-3.77h-1.27V8.24h1.27v1.15zm-1.274 3.77v-1.22h1.275v1.25h-1.275zM10.03 5.765h1.256v.05c.016.403.025.798.025 1.185h-1.29V5.75l.01.015zm-1.26 1.26H7.52V5.78h1.25v.105z"/><path d="M13.81 8.255h-1.264V7.02h1.265v1.185zm-1.274 2.52H11.31V9.53h1.25v1.13c-.02.035-.02.075-.025.115m1.275 1.25h-1.264V10.78h1.265v1.13zM11.31 7V5.755h1.25V7zm-2.54.025v-1.25h1.246v1.25h-1.25zm1.256 3.755v1.245h-1.25v-1.24h1.26zM8.77 9.5V8.25h1.25v1.245H8.77zm0 2.53h1.25v1.245H8.77v-1.13zm0-2.53h1.25v1.255H8.77v-.095z"/><path d="M10.02 8.275H8.77v-1.25h1.256v1.14c0 .04 0 .075-.005.11m.005 2.505V9.525h1.285v1.245h-1.285z"/></g></g></svg>