<svg xmlns="http://www.w3.org/2000/svg" width="185" height="185" viewBox="0 0 185 185"><g fill="none" fill-rule="evenodd"><rect width="185" height="185" fill="#C0C0C0" rx="15"/><path fill="#FFF" d="M37.259 52A2.258 2.258 0 0 0 35 54.261v76.102a2.25 2.25 0 0 0 2.231 2.253h27.614c5.016 0 9.677.056 13.851-.606 5.801-.944 10.567-3.029 14.04-6.334.862-.729 11.692-10.303 6.917-26.515 0 0-1.727-6.137-7.613-11.108 3.324-4.172 5.342-9.94 4.81-16.757-.62-7.799-4.53-12.851-10.375-15.972C80.354 52.078 72.373 52 63.079 52h-25.82zm20.187 32.246a2.258 2.258 0 0 1-2.26-2.257l-.03-11.707a2.274 2.274 0 0 1 2.27-2.159h13.853v.012c5.025 0 8.086 3.902 8.086 8.047 0 4.146-2.711 8.053-8.086 8.053v.016l-13.833-.005zm-2.291 29.985l.001-11.64c0-1.115.935-2.23 2.258-2.226h13.865c5.213 0 8.061 3.609 8.061 7.912s-2.848 8.216-8.061 8.216H57.411a2.254 2.254 0 0 1-2.256-2.262zM106.241 52A2.252 2.252 0 0 0 104 54.115l.018 76.397a2.25 2.25 0 0 0 2.241 2.103h44.058a2.244 2.244 0 0 0 2.144-2.014c.005-.155.014-.313.022-.473v-.007c.026-.556 0-13.628 0-13.628h-28.331l-.004-62.378A2.257 2.257 0 0 0 121.905 52h-15.664z"/></g></svg>