<svg xmlns="http://www.w3.org/2000/svg" xmlns:xlink="http://www.w3.org/1999/xlink" width="20" height="20" viewBox="0 0 20 20"><defs><path id="a" d="M7.133.078a6.289 6.289 0 0 0-.946.236c-.45.123-1.228.432-1.475.92-.122.24.07.758.244 1.233.14.377.26.533.212.62-.085.154-.157.754-.176.898-.013.101-.128.361-.305.574a3.01 3.01 0 0 1-.386.384c-.115.09-.143.2-.117.277.08.233.388.308.588.456 0 0 .072.081-.265.435-.02.022.005.306.318.476.099.055-.403.267.037.621.324.261-.32.891.362.977.153.019.352.006.562-.006.524-.031 1.122-.063 1.274.392.115.341.079 1.543-.106 2.078 0 0-.21.488.445.597.656.11 2.124-.801.68-4.554A15.625 15.625 0 0 0 7.3 4.996c-.253-.48-.51-.916-.748-1.313-.901-1.938.034-2.266.034-2.266a6.343 6.343 0 0 1 1.94-.272 5.698 5.698 0 0 1 1.902.412 4.323 4.323 0 0 1 1.603 1.118c.464.523.756 1.12.876 1.792.12.671.12 1.349 0 2.033a9.447 9.447 0 0 1-.518 1.843 7.918 7.918 0 0 1-.906 1.69 6.3 6.3 0 0 1-1.304 1.36 4.637 4.637 0 0 1-1.692.825 5.564 5.564 0 0 1-1.762.202 6.542 6.542 0 0 1-1.762-.322 5.927 5.927 0 0 1-1.603-.816 5.216 5.216 0 0 1-1.264-1.278 1.12 1.12 0 0 0-.906-.514 1.213 1.213 0 0 0-.527.101 1.058 1.058 0 0 0-.438.352c-.12.175-.19.37-.21.584-.02.215-.003.43.05.644.053.215.126.423.22.625.092.2.185.382.278.543.252.43.56.809.926 1.138.365.329.767.604 1.204.825.438.222.9.39 1.384.503.485.114.966.172 1.444.172.677 0 1.33-.098 1.96-.292a7.784 7.784 0 0 0 1.783-.806 9.034 9.034 0 0 0 1.562-1.218c.485-.47.92-.973 1.305-1.51a9.83 9.83 0 0 0 .975-1.751 11.96 11.96 0 0 0 .637-1.913c.146-.644.229-1.295.249-1.953a5.221 5.221 0 0 0-.309-1.933 4.652 4.652 0 0 0-1.035-1.742A5.61 5.61 0 0 0 11.055.682 6.425 6.425 0 0 0 9.144.087a7.096 7.096 0 0 0-2.01-.01z"/><path id="c" d="M7.133.078a6.289 6.289 0 0 0-.946.236c-.45.123-1.228.432-1.475.92-.122.24.07.758.244 1.233.14.377.26.533.212.62-.085.154-.157.754-.176.898-.013.101-.128.361-.305.574a3.01 3.01 0 0 1-.386.384c-.115.09-.143.2-.117.277.08.233.388.308.588.456 0 0 .072.081-.265.435-.02.022.005.306.318.476.099.055-.403.267.037.621.324.261-.32.891.362.977.153.019.352.006.562-.006.524-.031 1.122-.063 1.274.392.115.341.079 1.543-.106 2.078 0 0-.21.488.445.597.656.11 2.124-.801.68-4.554A15.625 15.625 0 0 0 7.3 4.996c-.253-.48-.51-.916-.748-1.313-.901-1.938.034-2.266.034-2.266a6.343 6.343 0 0 1 1.94-.272 5.698 5.698 0 0 1 1.902.412 4.323 4.323 0 0 1 1.603 1.118c.464.523.756 1.12.876 1.792.12.671.12 1.349 0 2.033a9.447 9.447 0 0 1-.518 1.843 7.918 7.918 0 0 1-.906 1.69 6.3 6.3 0 0 1-1.304 1.36 4.637 4.637 0 0 1-1.692.825 5.564 5.564 0 0 1-1.762.202 6.542 6.542 0 0 1-1.762-.322 5.927 5.927 0 0 1-1.603-.816 5.216 5.216 0 0 1-1.264-1.278 1.12 1.12 0 0 0-.906-.514 1.213 1.213 0 0 0-.527.101 1.058 1.058 0 0 0-.438.352c-.12.175-.19.37-.21.584-.02.215-.003.43.05.644.053.215.126.423.22.625.092.2.185.382.278.543.252.43.56.809.926 1.138.365.329.767.604 1.204.825.438.222.9.39 1.384.503.485.114.966.172 1.444.172.677 0 1.33-.098 1.96-.292a7.784 7.784 0 0 0 1.783-.806 9.034 9.034 0 0 0 1.562-1.218c.485-.47.92-.973 1.305-1.51a9.83 9.83 0 0 0 .975-1.751 11.96 11.96 0 0 0 .637-1.913c.146-.644.229-1.295.249-1.953a5.221 5.221 0 0 0-.309-1.933 4.652 4.652 0 0 0-1.035-1.742A5.61 5.61 0 0 0 11.055.682 6.425 6.425 0 0 0 9.144.087a7.096 7.096 0 0 0-2.01-.01z"/><path id="e" d="M7.195.077a6.403 6.403 0 0 0-.954.236c-.453.122-1.239.431-1.488.918-.123.24.07.756.246 1.23.14.376.262.531.214.618-.085.154-.158.752-.177.896-.014.1-.13.36-.309.573-.151.18-.322.33-.388.382-.116.091-.144.2-.118.277.08.232.39.307.592.454 0 0 .073.082-.266.435-.021.02.005.305.32.475.1.054-.407.265.038.619.327.26-.323.889.364.974.155.019.355.006.568-.006.528-.031 1.13-.062 1.285.391.115.34.08 1.54-.107 2.073 0 0-.213.486.449.596.661.11 2.143-.8.686-4.543a15.503 15.503 0 0 0-.786-1.691 28.448 28.448 0 0 0-.754-1.31c-.91-1.934.033-2.261.033-2.261a6.466 6.466 0 0 1 1.958-.271 5.802 5.802 0 0 1 1.918.411 4.37 4.37 0 0 1 1.617 1.115c.468.522.763 1.118.883 1.787.121.67.121 1.346 0 2.029a9.341 9.341 0 0 1-.522 1.837 7.869 7.869 0 0 1-.913 1.687 6.318 6.318 0 0 1-1.316 1.356 4.699 4.699 0 0 1-1.707.823 5.66 5.66 0 0 1-1.777.201 6.666 6.666 0 0 1-1.778-.321 6.005 6.005 0 0 1-1.616-.814 5.232 5.232 0 0 1-1.275-1.275 1.125 1.125 0 0 0-.402-.371 1.157 1.157 0 0 0-.512-.141 1.236 1.236 0 0 0-.532.1 1.06 1.06 0 0 0-.442.352c-.12.174-.191.368-.211.582-.02.215-.004.429.05.643.053.214.127.422.22.623.095.2.188.381.282.542.254.428.565.806.934 1.134.368.328.773.603 1.215.824a6.442 6.442 0 0 0 2.852.672c.683 0 1.342-.097 1.978-.29a7.895 7.895 0 0 0 1.797-.804 9.1 9.1 0 0 0 1.577-1.215c.488-.468.927-.97 1.315-1.506a9.779 9.779 0 0 0 .984-1.747c.268-.616.482-1.252.643-1.908a10.1 10.1 0 0 0 .251-1.948 5.155 5.155 0 0 0-.311-1.928 4.63 4.63 0 0 0-1.045-1.737A5.655 5.655 0 0 0 11.152.68 6.535 6.535 0 0 0 9.224.087a7.238 7.238 0 0 0-2.029-.01z"/></defs><g fill="none" fill-rule="evenodd"><path d="M0 0h20v20H0z"/><g transform="translate(3 2)"><mask id="b" fill="#fff"><use xlink:href="#a"/></mask><path fill="#B5B5B5" d="M-24.942 21.159s5.271 2.662 11.115-1.069c0 0 4.555-4.554 11.114-1.068C3.845 22.508 8.4 17.955 8.4 17.955s1.675-1.57 5.852-2.056c2.463-.286 5.254.897 5.254.897l-.91-9.687-44.456 4.273.918 9.777z" mask="url(#b)"/></g><g transform="translate(3 2)"><mask id="d" fill="#fff"><use xlink:href="#c"/></mask><path fill="#D6D6D6" d="M-25.533 14.867s5.271 2.662 11.114-1.068c0 0 4.556-4.555 11.114-1.068C3.254 16.217 7.81 11.663 7.81 11.663s1.675-1.57 5.852-2.056c2.463-.286 5.254.897 5.254.897l-.91-9.686L-26.45 5.09l.918 9.777z" mask="url(#d)"/></g><g transform="translate(3 2)"><mask id="f" fill="#fff"><use xlink:href="#e"/></mask><path fill="#B5B5B5" d="M-26.383 8.23s5.317 2.655 11.211-1.066c0 0 4.596-4.543 11.211-1.065C2.655 9.576 7.25 5.033 7.25 5.033s1.69-1.566 5.903-2.05c2.484-.286 5.3.895 5.3.895l-.918-9.662-44.844 4.261.926 9.752z" mask="url(#f)"/></g></g></svg>