<svg xmlns="http://www.w3.org/2000/svg" width="20" height="20" viewBox="0 0 20 20"><g fill="none" fill-rule="evenodd"><path fill="#F5F5F5" d="M-970-140H470v274H-970z"/><path d="M0-81h110V47H0z"/><path d="M0 0h20v20H0z"/><path fill="#B4B4B4" d="M4 13.84A2.16 2.16 0 0 0 6.16 16h3.112L4 12.955v.885z"/><path fill="#BFBFBF" d="M4 12.955L9.272 16h4.448L4 10.386z"/><path fill="#B4B4B4" d="M9.273 16L4 12.955zM4 10.375L13.72 16h.12a2.16 2.16 0 0 0 1.999-1.346L4 7.82v2.554z"/><path fill="#BFBFBF" d="M4 6.16v1.66l11.839 6.833c.106-.258.16-.535.161-.814v-1.661L4.161 5.346A2.15 2.15 0 0 0 4 6.16"/><path fill="#B4B4B4" d="M15.839 14.654L4 7.82zM6.16 4a2.16 2.16 0 0 0-2 1.346L16 12.18V9.625L6.28 4h-.12z"/><path fill="#B4B4B4" d="M4.161 5.346l11.84 6.833L4.16 5.346z"/><path fill="#BFBFBF" d="M10.724 4H6.28L16 9.614V7.045l-3.221-1.86z"/><path fill="#B4B4B4" d="M13.84 4h-3.112l2.05 1.185L16 7.06v-.9A2.16 2.16 0 0 0 13.84 4M16 7.045l-3.221-1.86z"/><path fill="#FFF" d="M13.33 7.986V5.834H7.21v8.415h2.175v-3.15h3.101v-2.1H9.385V7.986z"/></g></svg>