<svg xmlns="http://www.w3.org/2000/svg" width="20" height="20" viewBox="0 0 20 20"><g fill="none" fill-rule="evenodd"><path fill="#F5F5F5" d="M-970-167H470v274H-970z"/><path d="M0-108h110V20H0z"/><path d="M0 0h20v20H0z"/><path fill="#BE0E5F" d="M13.89 16H6.11A2.11 2.11 0 0 1 4 13.89V6.11A2.11 2.11 0 0 1 6.11 4h7.78A2.11 2.11 0 0 1 16 6.11v7.78A2.11 2.11 0 0 1 13.89 16"/><path fill="#BE0E5F" d="M13.89 4H6.11A2.11 2.11 0 0 0 4 6.11v7.78A2.11 2.11 0 0 0 6.11 16h7.78A2.11 2.11 0 0 0 16 13.89V6.11A2.11 2.11 0 0 0 13.89 4"/><path fill="#B4B4B4" d="M13.89 4H6.11A2.11 2.11 0 0 0 4 6.11v7.78A2.11 2.11 0 0 0 6.11 16h7.78A2.11 2.11 0 0 0 16 13.89V6.11A2.11 2.11 0 0 0 13.89 4"/><path fill="#999" d="M13.039 8.013v-1.63H7.962v7.772h1.63v-2.82h3.134v-1.63H9.592V8.013z"/><path fill="#FFF" d="M12.77 7.744v-1.63H7.692v7.772h1.63v-2.82h3.133v-1.63H9.322V7.744z"/></g></svg>