<svg xmlns="http://www.w3.org/2000/svg" width="20" height="20" viewBox="0 0 20 20"><g fill="none" fill-rule="evenodd"><path fill="#F5F5F5" d="M-1100-59H340v274h-1440z"/><path d="M0 0h110v128H0z"/><path d="M0 0h20v20H0z"/><path fill="#B4B4B4" d="M6.11 4h7.78A2.11 2.11 0 0 1 16 6.11v7.78A2.11 2.11 0 0 1 13.89 16H6.11A2.11 2.11 0 0 1 4 13.89V6.11A2.11 2.11 0 0 1 6.11 4"/><path d="M6.11 4A2.11 2.11 0 0 0 4 6.11v2.298l12 5.501V8.473L6.242 4h-.133z"/><path fill="#BFBFBF" d="M4 13.812L8.773 16H6.109A2.11 2.11 0 0 1 4 13.89v-.078z"/><path fill="#BFBFBF" d="M4 13.834L8.725 16h5.166A2.11 2.11 0 0 0 16 13.899l-12-5.5v5.435z"/><path fill="#BFBFBF" d="M4.506 15.26A2.1 2.1 0 0 1 4 13.89v-3.835l11.522-5.283A2.1 2.1 0 0 1 16 6.11v3.882L4.506 15.26z"/><path fill="#B4B4B4" d="M4.648 9.758l1.194 4.89-1.336.613A2.1 2.1 0 0 1 4 13.89v-3.836l.648-.297z"/><path fill="#B4B4B4" d="M4 13.834v-3.779l1.807-.828 5.924 2.715-5.929 2.718z"/><path fill="#020202" d="M14.54 11.45h-2.482V7.404c0-.217-.204-.392-.453-.392-.25 0-.453.175-.453.392v4.518l.004.003c.02.219.185.39.39.39h.284v-.001h2.71c.217 0 .394-.193.394-.432s-.177-.432-.394-.432M6.554 7.012c-.24 0-.433.175-.433.392v4.518c0 .216.194.392.433.392s.433-.176.433-.392V7.404c0-.217-.195-.392-.433-.392m6.53 5.856c-.25.13-.65.244-1.06.243a2.06 2.06 0 0 1-.67-.108 1.75 1.75 0 0 1-.616-.364 3.61 3.61 0 0 1-.147-.154l-.002-.002-.099-.107a257.983 257.983 0 0 1-2.076-2.307l1.372-1.643.054-.064.052-.063.457-.547a.43.43 0 0 0-.331-.706.433.433 0 0 0-.333.155l-.605.725-1.276 1.527-.054.066-.232.277-.004.005a.37.37 0 0 0-.029.044c-.006.01-.013.018-.018.028-.007.014-.012.028-.018.043l-.014.036c-.004.013-.005.026-.008.04l-.008.041v.082l.01.043.007.038c.004.013.01.025.015.038.006.013.01.028.018.04l.018.03.03.042.003.005a514.927 514.927 0 0 0 2.102 2.347l-.011.006.174.175c.194.212.332.36.37.396.282.257.598.433.918.543a2.934 2.934 0 0 0 1.31.134c.42-.046.797-.165 1.097-.318a.432.432 0 0 0-.395-.766" opacity=".2"/><path fill="#FFF" d="M14.388 11.356h-2.483V7.31c0-.216-.203-.392-.453-.392S11 7.094 11 7.31v4.518l.004.003c.02.219.185.39.389.39h2.995c.217 0 .393-.193.393-.433 0-.238-.176-.432-.393-.432M6.4 6.918c-.239 0-.432.176-.432.392v4.518c0 .216.193.392.432.392.24 0 .433-.176.433-.392V7.31c0-.216-.194-.392-.433-.392m6.531 5.856c-.25.13-.65.244-1.06.243a2.06 2.06 0 0 1-.67-.107 1.75 1.75 0 0 1-.616-.365 3.61 3.61 0 0 1-.147-.154l-.002-.002-.099-.107h-.001.001a257.778 257.778 0 0 1-2.076-2.307l1.372-1.642.054-.065.052-.063.456-.547a.43.43 0 0 0-.33-.706.433.433 0 0 0-.333.155l-.605.725L7.652 9.36l-.055.065-.232.278-.003.005a.37.37 0 0 0-.03.043c-.005.01-.012.019-.018.028a.32.32 0 0 0-.017.043l-.014.036c-.004.013-.006.027-.009.04l-.007.041v.083l.009.043a.22.22 0 0 0 .008.037c.003.013.01.025.015.038.006.014.01.028.017.04l.019.03c.01.014.018.029.03.043l.003.004a514.927 514.927 0 0 0 2.101 2.347l-.01.006.174.175c.194.212.332.361.37.396.282.257.597.434.917.543a2.934 2.934 0 0 0 1.31.134c.42-.046.797-.165 1.097-.318a.432.432 0 0 0-.395-.766"/></g></svg>