<svg xmlns="http://www.w3.org/2000/svg" width="19" height="20" viewBox="0 0 19 20"><g fill="none" fill-rule="evenodd"><path d="M0 0h19v20H0z"/><path fill="#B4B4B4" d="M2.961 4.052h12.501c.32 0 .57.26.555.577l-.294 6.398a.614.614 0 0 1-.608.577h-12.5a.55.55 0 0 1-.556-.577l.294-6.398a.614.614 0 0 1 .608-.577"/><path fill="#FFF" d="M5.347 10.323L4.46 8.747l-.615.557-.04.864c-.01.21-.072.371-.188.484a.54.54 0 0 1-.387.169.473.473 0 0 1-.387-.168c-.09-.111-.13-.275-.12-.493l.212-4.634c.011-.242.066-.425.166-.552a.487.487 0 0 1 .406-.189c.168 0 .297.057.39.172.093.114.135.282.124.505l-.12 2.635 1.28-1.281c.16-.16.28-.27.362-.328a.497.497 0 0 1 .294-.087.45.45 0 0 1 .333.13.41.41 0 0 1 .12.324c-.007.16-.164.371-.47.637l-.602.53 1.034 1.75c.077.131.13.23.163.298a.392.392 0 0 1 .045.193.595.595 0 0 1-.16.408.513.513 0 0 1-.379.15c-.133 0-.233-.036-.3-.108a2.418 2.418 0 0 1-.274-.39m1.77-.163l.217-4.714c.01-.218.066-.382.168-.493a.516.516 0 0 1 .4-.168.49.49 0 0 1 .39.166c.096.11.14.275.13.495l-.217 4.714c-.01.22-.07.385-.177.495a.54.54 0 0 1-.403.166.467.467 0 0 1-.38-.172c-.094-.114-.137-.277-.128-.489m2.955-4.264a.545.545 0 0 1-.38-.14c-.104-.093-.152-.225-.145-.393a.514.514 0 0 1 .184-.38.58.58 0 0 1 .759-.014c.104.09.153.221.145.394a.52.52 0 0 1-.177.391.578.578 0 0 1-.386.142m.487 1.122l-.145 3.142c-.01.218-.069.382-.177.493a.539.539 0 0 1-.402.168.467.467 0 0 1-.38-.172c-.095-.114-.138-.277-.128-.489l.143-3.11c.01-.215.068-.377.172-.486a.525.525 0 0 1 .396-.163c.159 0 .288.055.387.163.098.109.142.261.134.454m3.679 3.305l-.887-1.576-.616.557-.04.864c-.009.21-.072.371-.187.484a.54.54 0 0 1-.387.169.473.473 0 0 1-.388-.168c-.09-.111-.13-.275-.12-.493l.213-4.634c.01-.242.065-.425.165-.552a.487.487 0 0 1 .407-.189c.167 0 .296.057.39.172.093.114.134.282.124.505l-.121 2.635 1.28-1.281c.16-.16.28-.27.362-.328a.497.497 0 0 1 .295-.087.45.45 0 0 1 .332.13.41.41 0 0 1 .121.324c-.007.16-.165.371-.47.637l-.603.53 1.034 1.75c.077.131.131.23.163.298a.392.392 0 0 1 .046.193.595.595 0 0 1-.16.408.513.513 0 0 1-.38.15c-.133 0-.233-.036-.3-.108a2.412 2.412 0 0 1-.273-.39"/><path fill="#298DCD" d="M15.648 12.578h.092c.02 0 .035-.002.046-.006a.05.05 0 0 0 .025-.02.056.056 0 0 0 .008-.03.05.05 0 0 0-.016-.039c-.011-.01-.029-.015-.053-.015h-.102v.11zm-.043.177v-.323h.144c.028 0 .05.003.065.009a.073.073 0 0 1 .036.03.092.092 0 0 1 .014.05.08.08 0 0 1-.023.057.112.112 0 0 1-.068.03c.01.006.02.01.025.016a.226.226 0 0 1 .036.043l.056.088h-.054l-.042-.067a.591.591 0 0 0-.031-.045.099.099 0 0 0-.022-.021.065.065 0 0 0-.02-.009.135.135 0 0 0-.023-.001h-.05v.143h-.043z"/><path fill="#298DCD" d="M15.73 12.373a.22.22 0 0 0-.22.22.22.22 0 0 0 .22.22.22.22 0 0 0 .22-.22.22.22 0 0 0-.22-.22zm0-.037a.257.257 0 0 1 .258.257.257.257 0 0 1-.258.258.256.256 0 0 1-.257-.257.257.257 0 0 1 .257-.258z"/><path fill="#B6B6B6" d="M13.394 14.452l.125-2.12a8.98 8.98 0 0 0 .617-.002 8.23 8.23 0 0 1 .347-.007c.133 0 .25.005.354.016a.843.843 0 0 1 .211.045.5.5 0 0 1 .267.192c.03.04.051.088.067.142a.706.706 0 0 1-.007.37.562.562 0 0 1-.23.309 1.263 1.263 0 0 1-.242.118l.079.198.07.168.204.455.048.116-.344-.003-.367.003-.087-.3a12.675 12.675 0 0 0-.15-.45l-.156-.44a.95.95 0 0 0 .165.016.593.593 0 0 0 .206-.034.283.283 0 0 0 .141-.106.272.272 0 0 0 .05-.15.195.195 0 0 0-.035-.118.207.207 0 0 0-.112-.075.829.829 0 0 0-.236-.025c-.037 0-.074 0-.113.002a5.77 5.77 0 0 1-.136.005l-.075 1.675a35.681 35.681 0 0 0-.336-.003l-.325.003zm-2.003 0l.22-.001.684-.002c.3 0 .578.001.83.003.01-.164.022-.322.036-.475a5.077 5.077 0 0 1-.239.012l-.321.008-.328.005h-.178l.022-.378c.178-.007.338-.011.48-.011l.413.003c.012-.183.023-.34.035-.473-.25.007-.405.011-.463.011-.162 0-.305-.002-.427-.005l.023-.356a9.802 9.802 0 0 1 .547-.007c.135 0 .303.004.503.012 0-.037.002-.074.004-.11l.012-.17.008-.134.004-.052a101.073 101.073 0 0 1-1.733 0l-.132 2.12zm-1.453 0l.112-1.662-.662.017.01-.172c.005-.092.009-.193.012-.303.294.002.637.004 1.028.004l.384-.002h.373l.202-.002-.012.152a9.204 9.204 0 0 0-.014.323 11.29 11.29 0 0 0-.548-.017h-.108l-.09 1.662-.33-.003-.357.003zm-2.025-1.118c.302.494.519.866.65 1.118l.42-.003.382.003-.638-.943-.113-.183.124-.166.665-.828-.371.004-.391-.004-.09.134-.285.394-.353.474zm-.79 1.118l.134-2.12.357.004.335-.004-.086 1.16-.048.96-.337-.003a44.6 44.6 0 0 0-.355.003zM5.735 12.76a.613.613 0 0 0-.324.088.593.593 0 0 0-.224.243.753.753 0 0 0-.082.335.64.64 0 0 0 .067.301.49.49 0 0 0 .213.214.632.632 0 0 0 .622-.01.565.565 0 0 0 .221-.242.744.744 0 0 0 .08-.327.675.675 0 0 0-.067-.307.498.498 0 0 0-.202-.218.6.6 0 0 0-.304-.077zm.034-.468c.165 0 .324.022.477.067.153.044.286.115.4.213.113.098.198.21.254.338.055.127.082.274.08.44a1.208 1.208 0 0 1-.1.479 1.024 1.024 0 0 1-.274.37c-.12.101-.261.176-.425.223a1.845 1.845 0 0 1-1.014.001 1.069 1.069 0 0 1-.416-.223.872.872 0 0 1-.248-.344 1.13 1.13 0 0 1-.07-.421c.002-.227.057-.426.164-.597.107-.172.264-.305.472-.402a1.65 1.65 0 0 1 .7-.144zm-2.996 1.693c.057.005.117.008.179.008.105 0 .199-.01.282-.029a.455.455 0 0 0 .22-.119.569.569 0 0 0 .141-.235.98.98 0 0 0 .049-.294.658.658 0 0 0-.064-.312.37.37 0 0 0-.175-.176.747.747 0 0 0-.302-.05 4.7 4.7 0 0 0-.264.01l-.066 1.197zm-.676.467l.121-2.12a9.404 9.404 0 0 0 .648-.002c.138-.005.267-.007.388-.007.139 0 .26.008.365.025a.83.83 0 0 1 .291.103.71.71 0 0 1 .226.203c.06.084.106.182.136.294.031.113.046.228.044.347a1.51 1.51 0 0 1-.04.338 1.272 1.272 0 0 1-.108.293.929.929 0 0 1-.776.508 3.544 3.544 0 0 1-.38.018l-.628-.005c-.059 0-.155.002-.287.005z"/></g></svg>