<svg width="20" height="20" viewBox="0 0 20 20" xmlns="http://www.w3.org/2000/svg"><title>Icon_Liputan6 Copy 24</title><g fill="none" fill-rule="evenodd"><path d="M-1 0h20v20H-1z"/><path d="M13.363 4a2.637 2.637 0 0 1 2.636 2.636v6.725a2.637 2.637 0 0 1-2.636 2.637H6.636A2.638 2.638 0 0 1 4 13.361V6.636A2.637 2.637 0 0 1 6.637 4zm-.732 1.425H9.994L7.849 8.431c-.181.264-.346.506-.494.728-.14.21-.264.43-.37.66a3.438 3.438 0 0 0-.227.666 3.517 3.517 0 0 0 .195 2.095 3.263 3.263 0 0 0 1.78 1.74 3.266 3.266 0 0 0 2.482 0 3.4 3.4 0 0 0 1.06-.681c.311-.297.561-.653.734-1.047.185-.425.278-.884.272-1.347.005-.41-.07-.815-.22-1.196a3.245 3.245 0 0 0-.579-.945 2.97 2.97 0 0 0-1.774-.957l1.923-2.722zm-2.65 4.65c.29-.005.57.11.773.32.212.213.319.491.319.836a1.18 1.18 0 0 1-.32.85 1.056 1.056 0 0 1-1.546-.007 1.189 1.189 0 0 1-.319-.843c-.01-.308.105-.607.32-.83.2-.212.48-.33.772-.326z" fill="#B4B4B4" fill-rule="nonzero"/></g></svg>