<svg xmlns="http://www.w3.org/2000/svg" xmlns:xlink="http://www.w3.org/1999/xlink" width="20" height="20" viewBox="0 0 20 20"><defs><path id="a" d="M0 0h12v12H0z"/></defs><g fill="none" fill-rule="evenodd"><path fill="#F5F5F5" d="M-1100-86H340v274h-1440z"/><path d="M0-27h110v128H0z"/><path d="M0 0h20v20H0z"/><g transform="translate(4 4)"><mask id="b" fill="#fff"><use xlink:href="#a"/></mask><path fill="#B4B4B4" d="M2.16 0h7.68A2.16 2.16 0 0 1 12 2.16v7.68A2.16 2.16 0 0 1 9.84 12H2.16A2.16 2.16 0 0 1 0 9.84V2.16A2.16 2.16 0 0 1 2.16 0" mask="url(#b)"/></g><path fill="#FFF" d="M11.009 7.799s.12-.345.412-.334c.293.011.3.337.304.682v4.85l2.025-.71V8.22s.026-1.043-.27-1.388a1.647 1.647 0 0 0-1.267-.637c-.597-.045-1.013.375-1.426.84A1.671 1.671 0 0 0 9.554 6.2c-.71-.067-1.313.604-1.313.604v-.536h-1.99v7.541h1.986V7.75s.162-.375.484-.326c.323.048.266.885.266.885v5.501h.436l1.57-.559.016-5.452z"/><path fill="#E0E0E0" d="M11.725 13.81h2.025v-1.523L11.729 13c0 .488-.004.81-.004.81m-.712-.559l-1.572.559h1.572z"/></g></svg>