<svg xmlns="http://www.w3.org/2000/svg" width="20" height="20" viewBox="0 0 20 20"><g fill="none" fill-rule="evenodd"><path fill="#F5F5F5" d="M-1100-113H340v274h-1440z"/><path d="M0-54h110V74H0z"/><path d="M0 0h20v20H0z"/><path fill="#B4B4B4" d="M13.89 4.007H6.11C4.943 4.007 4 4.95 4 6.114v7.774c0 1.164.944 2.107 2.11 2.107h7.78c1.166 0 2.11-.943 2.11-2.107V6.114a2.108 2.108 0 0 0-2.11-2.107"/><path fill="#000" d="M10.2 13.445c-1.382 0-2.332-.034-2.847-.103-.746-.1-1.203-.455-1.373-1.063-.115-.417-.173-1.138-.173-2.16 0-.974.058-1.668.173-2.082.17-.608.627-.963 1.373-1.063.515-.069 1.464-.102 2.846-.102v1.66c-1.03 0-1.65.027-1.858.08-.24.062-.398.2-.473.418-.076.217-.112.648-.112 1.295 0 .39.02.672.06.846.079.324.314.511.707.557.289.037.847.056 1.676.056v1.66zm0-6.573c1.378 0 2.328.033 2.845.102.747.1 1.204.455 1.373 1.063.115.417.173 1.124.173 2.119 0 .998-.058 1.706-.173 2.123-.17.608-.626.963-1.373 1.063-.517.069-1.46.103-2.827.103H10.2v-1.66h.015c.783 0 1.304-.015 1.563-.042.259-.03.45-.091.575-.189a.652.652 0 0 0 .23-.385c.04-.17.06-.448.06-.836 0-.458-.015-.795-.045-1.01-.032-.215-.088-.378-.17-.486-.102-.137-.273-.224-.51-.256-.236-.033-.808-.049-1.713-.049H10.2v-1.66z" opacity=".2"/><path fill="#FFFDFD" d="M10 13.222c-1.382 0-2.33-.034-2.846-.102-.746-.1-1.204-.455-1.373-1.063-.115-.417-.173-1.139-.173-2.16 0-.975.058-1.669.173-2.083.17-.608.627-.962 1.373-1.063.514-.068 1.464-.102 2.846-.102v1.66c-1.03 0-1.65.028-1.859.08a.632.632 0 0 0-.473.419c-.075.217-.112.648-.112 1.295 0 .389.021.672.061.846.079.324.314.51.707.557.289.036.846.056 1.676.056v1.66zm0-6.573c1.38 0 2.329.034 2.846.102.747.1 1.204.455 1.373 1.063.115.417.173 1.124.173 2.12 0 .997-.058 1.706-.173 2.123-.17.608-.626.963-1.373 1.063-.517.069-1.46.102-2.827.102H10v-1.66h.014c.784 0 1.304-.015 1.563-.042.26-.029.451-.09.576-.188a.652.652 0 0 0 .23-.385c.04-.171.06-.449.06-.837 0-.458-.015-.795-.046-1.01-.032-.214-.088-.377-.17-.486-.101-.137-.272-.223-.509-.255-.236-.034-.809-.05-1.713-.05H10V6.65z"/></g></svg>