<svg xmlns="http://www.w3.org/2000/svg" width="20" height="20" viewBox="0 0 20 20"><g fill="none" fill-rule="evenodd"><path fill="#F5F5F5" d="M-1100-140H340v274h-1440z"/><path d="M0-81h110V47H0z"/><path d="M0 0h20v20H0z"/><path fill="#B4B4B4" d="M13.89 4H6.11A2.11 2.11 0 0 0 4 6.11v7.78A2.11 2.11 0 0 0 6.11 16h7.78A2.11 2.11 0 0 0 16 13.89V6.11A2.11 2.11 0 0 0 13.89 4"/><path fill="#000" d="M13.806 7.154a.588.588 0 0 1-.15.06c-.237.066-.523.079-.791.092-.04 0-.14-.007-.188-.007.083-.088.197-.17.287-.242.453-.323.794-.217.855-.162.136.12.026.237-.013.26m.394-.397a.777.777 0 0 0-.458-.242c-.346-.033-.79.293-1.067.537l-.005.004a3.706 3.706 0 0 0-.26.249c-.043-.002-.297-.003-.339-.004-.255-.006-.497-.02-.72-.029-.45-.025-.825-.047-1.087-.06l-.306-.019-.108-.008s.146.05.407.116c.26.067.634.152 1.086.23.18.032.566.06.77.085a9.6 9.6 0 0 0-.196.24c-.001.002-1.851 2.459-2.647 4.679-.214-1.194-.777-3.63-1.465-3.974-.582-.293-1.053-.178-1.29.055-.424.416-.463 1.235-.463 1.235s.093.004.126-.14c.161-.707.555-1.111 1.145-.786.662.364 1.25 4.136 1.36 4.498l.03.088.031.087c.147.377.606.356.606.356l.053-.127c.034-.08.057-.16.08-.233.133-.414.816-2.344 1.511-3.654.35-.66.968-1.627 1.251-2.058.04-.058.092-.133.154-.217.158.012.337.023.503.027.29.005.587.002.907-.078.08-.022.162-.049.248-.096a.468.468 0 0 0 .224-.255c.02-.064.05-.354-.081-.506" opacity=".2"/><path fill="#FFF" d="M13.63 6.943a.588.588 0 0 1-.15.06c-.237.066-.523.079-.791.092-.04 0-.14-.007-.188-.007.083-.088.197-.17.287-.242.454-.323.794-.217.856-.162.135.12.025.237-.014.26m.394-.397a.777.777 0 0 0-.458-.242c-.345-.033-.79.293-1.067.537l-.005.004a3.706 3.706 0 0 0-.26.249l-.339-.004c-.255-.005-.496-.02-.72-.029-.45-.025-.824-.047-1.086-.06-.132-.009-.235-.014-.306-.018l-.109-.009s.146.05.407.116c.26.067.634.152 1.086.23.181.033.566.06.77.085a9.6 9.6 0 0 0-.196.24c0 .002-1.85 2.459-2.646 4.679-.215-1.194-.778-3.63-1.466-3.974-.582-.293-1.053-.178-1.29.056-.424.415-.463 1.234-.463 1.234s.093.004.126-.14c.161-.707.555-1.111 1.145-.786.663.364 1.251 4.136 1.361 4.498l.029.088.031.087c.147.377.606.356.606.356l.053-.127c.034-.08.057-.16.08-.233.133-.414.817-2.344 1.511-3.654.35-.659.968-1.627 1.251-2.058.04-.058.092-.133.155-.217.157.013.337.023.502.027.29.005.587.002.907-.078a1.07 1.07 0 0 0 .248-.096.468.468 0 0 0 .224-.255c.021-.064.05-.354-.081-.506"/></g></svg>