<svg xmlns="http://www.w3.org/2000/svg" xmlns:xlink="http://www.w3.org/1999/xlink" width="21" height="20" viewBox="0 0 21 20"><defs><path id="a" d="M15.023 6.617c.057 0 .113 0 .184-.015.07.194.099.417.099.67 0 1.888-1.821 5.16-4.066 6.75l.424-3.554c.395-3.212-.706-5.323-3.29-5.323C6.496 5.145 5 6.736 5 8.685c0 1.962 1.51 3.627 3.6 3.196L8.19 9.77c-.705.044-1.397-.61-1.397-1.517 0-.833.65-1.517 1.44-1.517.706 0 1.765.52 1.468 3.048L8.953 16h1.722C14.105 14.29 17 9.725 17 6.691 17 5.175 16.252 4 15.023 4c-.691 0-1.242.58-1.242 1.309 0 .728.55 1.308 1.242 1.308z"/></defs><g fill="none" fill-rule="evenodd"><path d="M0 0h21v20H0z"/><g fill="#B4B4B4"><use xlink:href="#a"/><use xlink:href="#a"/></g></g></svg>